<svg width="32" height="32" viewBox="0 0 32 32" fill="none" xmlns="http://www.w3.org/2000/svg">
<path d="M5 5V27H27V5H5ZM7 7H25V25H7V7ZM16.25 8C14.125 8 14.125 13.505 14.125 13.563C14.125 14.203 14.149 14.812 14.188 15.375C13.8685 15.2533 13.5299 15.1896 13.188 15.187C11.003 15.188 10 17.035 10 19C10 20.848 11.043 23 13.406 23C14.523 23 15.489 22.286 16.252 21.219C16.924 21.903 17.604 22.156 18.127 22.156C19.787 22.156 20.887 19.254 21.281 18C21.398 17.605 21.183 17.148 20.781 17.031C20.6867 17.0011 20.5873 16.9903 20.4888 16.9993C20.3902 17.0083 20.2945 17.037 20.2072 17.0836C20.1198 17.1302 20.0427 17.1938 19.9804 17.2706C19.918 17.3474 19.8716 17.436 19.844 17.531C19.379 19.004 18.512 20.547 18.125 20.625C17.84 20.625 17.445 20.375 17.031 19.812C17.981 17.817 18.469 15.328 18.469 13.656C18.469 8.98 17.258 8 16.25 8ZM16.313 9.625C16.552 9.98 16.969 11.105 16.969 13.656C16.969 15.008 16.64 16.586 16.156 17.969C15.84 16.891 15.625 15.441 15.625 13.562C15.625 11.823 15.996 10.18 16.313 9.625V9.625ZM12.906 16.719C12.996 16.699 13.086 16.719 13.187 16.719C13.829 16.719 14.313 17.187 14.313 17.187C14.343 17.227 14.386 17.282 14.437 17.312C14.6042 18.2047 14.8992 19.0686 15.313 19.877C14.738 20.846 14.066 21.471 13.406 21.471C11.696 21.471 11.531 19.941 11.531 19.281C11.531 19.179 11.554 16.989 12.906 16.719Z" fill="black"/>
</svg>
