<svg width="32" height="32" viewBox="0 0 32 32" fill="none" xmlns="http://www.w3.org/2000/svg">
<g clip-path="url(#clip0)">
<path d="M21.3333 21.3333C24.2789 21.3333 26.6667 18.9455 26.6667 16C26.6667 13.0545 24.2789 10.6667 21.3333 10.6667C18.3878 10.6667 16 13.0545 16 16C16 18.9455 18.3878 21.3333 21.3333 21.3333Z" fill="#19BCFE"/>
<path fill-rule="evenodd" clip-rule="evenodd" d="M10.6666 32C12.0811 32 13.4377 31.4381 14.4379 30.4379C15.4381 29.4377 16 28.0812 16 26.6667V21.3333H10.6666C9.25216 21.3333 7.8956 21.8952 6.89541 22.8954C5.89522 23.8956 5.33331 25.2522 5.33331 26.6667C5.33331 28.0812 5.89522 29.4377 6.89541 30.4379C7.8956 31.4381 9.25216 32 10.6666 32V32Z" fill="#09CF83"/>
<path fill-rule="evenodd" clip-rule="evenodd" d="M10.6666 21.3333H16V10.6667H10.6666C9.25216 10.6667 7.8956 11.2286 6.89541 12.2288C5.89522 13.2289 5.33331 14.5855 5.33331 16C5.33331 17.4145 5.89522 18.771 6.89541 19.7712C7.8956 20.7714 9.25216 21.3333 10.6666 21.3333V21.3333Z" fill="#A259FF"/>
<path fill-rule="evenodd" clip-rule="evenodd" d="M10.6666 10.6667H16V0H10.6666C9.25216 0 7.8956 0.561903 6.89541 1.5621C5.89522 2.56229 5.33331 3.91885 5.33331 5.33333C5.33331 6.74782 5.89522 8.10438 6.89541 9.10457C7.8956 10.1048 9.25216 10.6667 10.6666 10.6667V10.6667Z" fill="#F24E1E"/>
<path fill-rule="evenodd" clip-rule="evenodd" d="M21.3333 10.6667H16V0H21.3333C22.7478 0 24.1044 0.561903 25.1046 1.5621C26.1048 2.56229 26.6667 3.91885 26.6667 5.33333C26.6667 6.74782 26.1048 8.10438 25.1046 9.10457C24.1044 10.1048 22.7478 10.6667 21.3333 10.6667Z" fill="#FF7262"/>
</g>
<defs>
<clipPath id="clip0">
<rect width="32" height="32" fill="white"/>
</clipPath>
</defs>
</svg>
