<svg width="32" height="32" viewBox="0 0 32 32" fill="none" xmlns="http://www.w3.org/2000/svg">
<path d="M16 18.474C17.3807 18.474 18.5 17.3547 18.5 15.974C18.5 14.5933 17.3807 13.474 16 13.474C14.6193 13.474 13.5 14.5933 13.5 15.974C13.5 17.3547 14.6193 18.474 16 18.474Z" fill="#00D8FF"/>
<path d="M16 21.706C12.9951 21.7786 9.99779 21.3736 7.12 20.506C5.79062 20.0846 4.55073 19.4207 3.463 18.548C3.04793 18.2498 2.70227 17.8654 2.44974 17.4211C2.19721 16.9768 2.04379 16.4831 2 15.974C2 14.321 3.816 12.701 6.858 11.641C9.81273 10.7017 12.8999 10.2465 16 10.293C19.0587 10.2502 22.1045 10.6972 25.022 11.617C26.3023 12.0251 27.5001 12.6569 28.56 13.483C28.968 13.7672 29.3084 14.1377 29.5573 14.5682C29.8061 14.9986 29.9573 15.4786 30 15.974C30 17.692 27.97 19.433 24.7 20.515C21.8779 21.3543 18.9438 21.756 16 21.706V21.706ZM16 11.489C13.0341 11.4493 10.0808 11.8821 7.251 12.771C4.451 13.748 3.196 15.084 3.196 15.971C3.196 16.899 4.545 18.358 7.507 19.371C10.2601 20.1968 13.1266 20.5812 16 20.51C18.8164 20.5603 21.6239 20.1792 24.325 19.38C27.4 18.361 28.8 16.9 28.8 15.974C28.7495 15.6562 28.6337 15.3523 28.4599 15.0816C28.2861 14.8108 28.058 14.5791 27.79 14.401C26.8418 13.6681 25.7717 13.1082 24.629 12.747C21.838 11.8707 18.925 11.446 16 11.489V11.489Z" fill="#00D8FF"/>
<path d="M10.3201 28.443C9.85357 28.4537 9.39257 28.3405 8.98407 28.115C7.55207 27.289 7.05607 24.907 7.65707 21.742C8.31971 18.7131 9.46787 15.8113 11.0571 13.149C12.5478 10.4781 14.4562 8.06289 16.7101 5.99497C17.7032 5.08968 18.8489 4.36752 20.0941 3.86197C20.5444 3.65091 21.0357 3.5415 21.5331 3.5415C22.0304 3.5415 22.5217 3.65091 22.9721 3.86197C24.4611 4.71997 24.9541 7.34797 24.2591 10.721C23.576 13.5855 22.4576 16.3284 20.9431 18.854C19.5048 21.4933 17.6564 23.8875 15.4671 25.947C14.4379 26.8878 13.2434 27.6299 11.9441 28.136C11.4239 28.329 10.8748 28.4328 10.3201 28.443V28.443ZM12.0931 13.743C10.5772 16.2923 9.47673 19.0667 8.83307 21.962C8.28007 24.877 8.81107 26.63 9.58307 27.076C10.3831 27.539 12.3251 27.1 14.6831 25.04C16.7731 23.0669 18.5373 20.7752 19.9101 18.25C21.361 15.8355 22.4338 13.2131 23.0911 10.474C23.7451 7.29897 23.1801 5.35497 22.3781 4.89297C22.0775 4.7778 21.7563 4.72624 21.4347 4.74156C21.1132 4.75688 20.7983 4.83874 20.5101 4.98197C19.4017 5.43932 18.3828 6.0886 17.5001 6.89997C15.3467 8.88076 13.5238 11.1929 12.1001 13.749L12.0931 13.743Z" fill="#00D8FF"/>
<path d="M21.6769 28.456C20.3219 28.456 18.6009 27.636 16.8089 26.095C14.5156 24.0083 12.5749 21.5644 11.0619 18.858C9.49266 16.2324 8.35359 13.3726 7.68792 10.387C7.39923 9.0735 7.34574 7.7192 7.52992 6.38701C7.5725 5.89282 7.72299 5.41398 7.97076 4.98427C8.21853 4.55456 8.55755 4.18444 8.96392 3.90001C10.4509 3.03901 12.9739 3.92401 15.5489 6.21001C17.6895 8.23219 19.5073 10.5707 20.9389 13.144C22.5072 15.7084 23.6582 18.5055 24.3489 21.431C24.65 22.7927 24.6965 24.1984 24.4859 25.577C24.4358 26.0854 24.2764 26.577 24.0185 27.018C23.7606 27.459 23.4104 27.839 22.9919 28.132C22.5901 28.3547 22.1362 28.4666 21.6769 28.456V28.456ZM12.0969 18.256C13.5484 20.8424 15.4022 23.1814 17.5889 25.185C19.8379 27.12 21.6219 27.536 22.3889 27.085C23.1889 26.62 23.7789 24.722 23.1709 21.651C22.5048 18.8579 21.4008 16.1879 19.8999 13.74C18.5338 11.2771 16.7987 9.03787 14.7549 7.10001C12.3309 4.94801 10.3649 4.46701 9.56392 4.93101C9.31427 5.13389 9.10939 5.38633 8.96223 5.6724C8.81507 5.95846 8.72881 6.27193 8.70892 6.59301C8.54993 7.7811 8.60172 8.98791 8.86192 10.158C9.50223 13.0131 10.5947 15.7476 12.0979 18.258L12.0969 18.256Z" fill="#00D8FF"/>
</svg>
