<svg width="32" height="32" viewBox="0 0 32 32" fill="none" xmlns="http://www.w3.org/2000/svg">
<path d="M16 0C7.1635 0 0 7.16337 0 16C0 24.8366 7.1635 32 16 32C24.8366 32 32 24.8366 32 16C32 7.16337 24.8366 0 16 0ZM3.438 16.1667L15.8331 28.562C9.02688 28.4733 3.52662 22.9732 3.438 16.1667V16.1667ZM18.812 28.248L3.752 13.188C5.02925 7.603 10.0279 3.43587 16 3.43587C20.1746 3.43587 23.8731 5.4725 26.1579 8.60588L24.4182 10.1407C22.565 7.483 19.4857 5.74363 16 5.74363C11.5619 5.74363 7.7825 8.56262 6.35388 12.5077L19.4925 25.6461C22.6831 24.4908 25.137 21.7974 25.9587 18.4615H20.513V16H28.5643C28.5643 21.9722 24.3972 26.9709 18.8121 28.2479L18.812 28.248Z" fill="#744C9E"/>
</svg>
